name Walk9.mot
datacolumns 19
datarows 27
range 2.13500000 2.26500000
endheader

                time	   L_ground_force_vx	   L_ground_force_vy	   L_ground_force_vz	   L_ground_force_px	   L_ground_force_py	   L_ground_force_pz	   R_ground_force_vx	   R_ground_force_vy	   R_ground_force_vz	   R_ground_force_px	   R_ground_force_py	   R_ground_force_pz	   L_ground_torque_x	   L_ground_torque_y	   L_ground_torque_z	   R_ground_torque_x	   R_ground_torque_y	   R_ground_torque_z	
          2.13500000	          1.79901460	          1.54225375	         -1.10083855	          0.16352917	          0.00000000	          0.06050256	          0.00000000	          0.00000000	         -0.00000000	          0.00000000	          0.00000000	         -0.00000000	          0.00000000	         -0.04217171	          0.00000000	          0.00000000	         -0.00000000	          0.00000000	
          2.14000000	         -1.21519350	         -5.11348052	         -1.01222698	          0.11431891	          0.00000000	          0.04196217	          0.00000000	          0.00000000	          0.00000000	         -0.00000000	          0.00000000	          0.00000000	          0.00000000	         -0.02642595	          0.00000000	          0.00000000	         -0.00000000	          0.00000000	
          2.14500000	         -3.05203965	         -8.97725949	         -0.87534718	          0.07372008	          0.00000000	          0.02675388	          0.00000000	          0.00000000	          0.00000000	         -0.00000000	          0.00000000	          0.00000000	          0.00000000	         -0.01423852	          0.00000000	          0.00000000	         -0.00000000	          0.00000000	
          2.15000000	         -3.98859407	        -10.74503341	         -0.71833944	          0.04185447	          0.00000000	          0.01488519	          0.00000000	          0.00000000	          0.00000000	         -0.00000000	          0.00000000	          0.00000000	          0.00000000	         -0.00529687	          0.00000000	          0.00000000	         -0.00000000	          0.00000000	
          2.15500000	         -4.27373871	        -11.02887037	         -0.56084145	          0.01810949	          0.00000000	          0.00609678	          0.00000000	          0.00000000	          0.00000000	         -0.00000000	          0.00000000	          0.00000000	          0.00000000	          0.00085616	          0.00000000	          0.00000000	         -0.00000000	          0.00000000	
          2.16000000	         -4.11859539	        -10.33863921	         -0.41548527	          0.00145005	          0.00000000	         -0.00002123	          0.00000000	          0.00000000	          0.00000000	         -0.00000000	          0.00000000	          0.00000000	          0.00000000	          0.00473426	          0.00000000	          0.00000000	         -0.00000000	          0.00000000	
          2.16500000	         -3.69337389	         -9.07834599	         -0.28941130	         -0.00934800	          0.00000000	         -0.00394291	          0.00000000	          0.00000000	          0.00000000	         -0.00000000	          0.00000000	          0.00000000	          0.00000000	          0.00684680	          0.00000000	          0.00000000	         -0.00000000	          0.00000000	
          2.17000000	         -3.12858636	         -7.55215696	         -0.18567357	         -0.01553327	          0.00000000	         -0.00614598	          0.00000000	          0.00000000	          0.00000000	         -0.00000000	          0.00000000	          0.00000000	          0.00000000	          0.00766002	          0.00000000	          0.00000000	         -0.00000000	          0.00000000	
          2.17500000	         -2.51896570	         -5.97615720	         -0.10446404	         -0.01827127	          0.00000000	         -0.00707269	          0.00000000	          0.00000000	          0.00000000	         -0.00000000	          0.00000000	          0.00000000	          0.00000000	          0.00757571	          0.00000000	          0.00000000	          0.00000000	          0.00000000	
          2.18000000	         -1.92880806	         -4.49285731	         -0.04412410	         -0.01858206	          0.00000000	         -0.00710760	          0.00000000	          0.00000000	          0.00000000	         -0.00000000	          0.00000000	          0.00000000	          0.00000000	          0.00692250	          0.00000000	          0.00000000	          0.00000000	          0.00000000	
          2.18500000	         -1.39780600	         -3.18631514	         -0.00193958	         -0.01731175	          0.00000000	         -0.00656787	          0.00000000	          0.00000000	          0.00000000	         -0.00000000	          0.00000000	          0.00000000	          0.00000000	          0.00595612	          0.00000000	          0.00000000	          0.00000000	          0.00000000	
          2.19000000	         -0.94673511	         -2.09645595	          0.02526593	         -0.01512797	          0.00000000	         -0.00570231	          0.00000000	         -0.00000000	          0.00000000	         -0.00000000	          0.00000000	          0.00000000	          0.00000000	          0.00486534	          0.00000000	          0.00000000	          0.00000000	          0.00000000	
          2.19500000	         -0.58259679	         -1.23174605	          0.04071407	         -0.01253112	          0.00000000	         -0.00469626	          0.00000000	         -0.00000000	          0.00000000	         -0.00000000	          0.00000000	          0.00000000	          0.00000000	          0.00378106	          0.00000000	          0.00000000	          0.00000000	          0.00000000	
          2.20000000	         -0.30300557	         -0.57980812	          0.04740067	         -0.00987475	          0.00000000	         -0.00367968	         -0.00000000	         -0.00000000	          0.00000000	         -0.00000000	          0.00000000	          0.00000000	          0.00000000	          0.00278669	          0.00000000	          0.00000000	          0.00000000	          0.00000000	
          2.20500000	         -0.09974507	         -0.11587715	          0.04793984	         -0.00739029	          0.00000000	         -0.00273675	         -0.00000000	         -0.00000000	          0.00000000	         -0.00000000	          0.00000000	          0.00000000	          0.00000000	          0.00192863	          0.00000000	          0.00000000	          0.00000000	          0.00000000	
          2.21000000	          0.03849059	          0.19079728	          0.04449413	         -0.00521258	          0.00000000	         -0.00191562	         -0.00000000	         -0.00000000	         -0.00000000	          0.00000000	          0.00000000	         -0.00000000	          0.00000000	          0.00122584	          0.00000000	          0.00000000	          0.00000000	          0.00000000	
          2.21500000	          0.12409429	          0.37237189	          0.03876552	         -0.00340380	          0.00000000	         -0.00123755	         -0.00000000	         -0.00000000	         -0.00000000	          0.00000000	          0.00000000	         -0.00000000	          0.00000000	          0.00067821	          0.00000000	          0.00000000	          0.00000000	          0.00000000	
          2.22000000	          0.16917593	          0.45936206	          0.03202599	         -0.00197467	          0.00000000	         -0.00070484	         -0.00000000	         -0.00000000	         -0.00000000	          0.00000000	          0.00000000	         -0.00000000	          0.00000000	          0.00027338	          0.00000000	          0.00000000	          0.00000000	          0.00000000	
          2.22500000	          0.18470615	          0.47881719	          0.02517119	         -0.00090202	          0.00000000	         -0.00030748	         -0.00000000	         -0.00000000	         -0.00000000	          0.00000000	          0.00000000	         -0.00000000	          0.00000000	         -0.00000785	          0.00000000	          0.00000000	          0.00000000	          0.00000000	
          2.23000000	          0.18005735	          0.45342473	          0.01878460	         -0.00014281	          0.00000000	         -0.00002834	         -0.00000000	         -0.00000000	         -0.00000000	          0.00000000	          0.00000000	         -0.00000000	          0.00000000	         -0.00018757	          0.00000000	          0.00000000	          0.00000000	          0.00000000	
          2.23500000	          0.16283580	          0.40128063	          0.01320338	          0.00035535	          0.00000000	          0.00015291	         -0.00000000	         -0.00000000	         -0.00000000	          0.00000000	          0.00000000	         -0.00000000	          0.00000000	         -0.00028799	          0.00000000	          0.00000000	          0.00000000	          0.00000000	
          2.24000000	          0.13891362	          0.33610518	          0.00858001	          0.00064670	          0.00000000	          0.00025705	         -0.00000000	         -0.00000000	         -0.00000000	          0.00000000	          0.00000000	         -0.00000000	          0.00000000	         -0.00032961	          0.00000000	          0.00000000	          0.00000000	          0.00000000	
          2.24500000	          0.11258640	          0.26772757	          0.00493657	          0.00078240	          0.00000000	          0.00030350	         -0.00000000	         -0.00000000	         -0.00000000	          0.00000000	          0.00000000	         -0.00000000	          0.00000000	         -0.00033023	          0.00000000	          0.00000000	          0.00000000	          0.00000000	
          2.25000000	          0.08679904	          0.20270432	          0.00220967	          0.00080754	          0.00000000	          0.00030928	         -0.00000000	         -0.00000000	         -0.00000000	          0.00000000	          0.00000000	         -0.00000000	          0.00000000	         -0.00030452	          0.00000000	          0.00000000	         -0.00000000	          0.00000000	
          2.25500000	          0.06339735	          0.14497471	          0.00028621	          0.00075979	          0.00000000	          0.00028853	         -0.00000000	         -0.00000000	         -0.00000000	          0.00000000	          0.00000000	         -0.00000000	          0.00000000	         -0.00026394	          0.00000000	          0.00000000	         -0.00000000	          0.00000000	
          2.26000000	          0.04337633	          0.09648808	         -0.00096991	          0.00066909	          0.00000000	          0.00025241	         -0.00000000	         -0.00000000	         -0.00000000	          0.00000000	          0.00000000	         -0.00000000	          0.00000000	         -0.00021704	          0.00000000	          0.00000000	         -0.00000000	          0.00000000	
          2.26500000	          0.02710670	          0.05776351	         -0.00169872	          0.00055800	          0.00000000	          0.00020928	         -0.00000000	          0.00000000	         -0.00000000	          0.00000000	          0.00000000	         -0.00000000	          0.00000000	         -0.00016981	          0.00000000	          0.00000000	         -0.00000000	          0.00000000	
